<?xml version="1.0" standalone="no"?>
<!DOCTYPE svg PUBLIC "-//W3C//DTD SVG 20010904//EN"
 "http://www.w3.org/TR/2001/REC-SVG-20010904/DTD/svg10.dtd">
<svg version="1.0" xmlns="http://www.w3.org/2000/svg"
 width="512.000000pt" height="512.000000pt" viewBox="0 0 512.000000 512.000000"
 preserveAspectRatio="xMidYMid meet">
<metadata>
Created by potrace 1.14, written by Peter Selinger 2001-2017
</metadata>
<g transform="translate(0.000000,512.000000) scale(0.100000,-0.100000)"
fill="#000000" stroke="none">
<path d="M3128 4235 c-2 -2 -32 -6 -67 -9 -177 -19 -390 -127 -536 -274 l-50
-50 -74 44 c-150 87 -327 133 -501 128 -150 -4 -268 -32 -397 -95 -311 -152
-524 -472 -535 -807 -3 -67 -2 -66 -68 -77 -92 -15 -225 -66 -330 -126 -282
-160 -482 -443 -544 -769 -18 -95 -18 -317 1 -401 7 -35 16 -73 18 -84 11 -47
61 -175 93 -235 110 -206 284 -375 489 -479 58 -29 192 -78 238 -87 11 -2 47
-9 80 -15 34 -7 179 -12 334 -13 l274 -2 -34 26 c-166 124 -293 307 -353 506
-31 103 -37 161 -36 318 1 170 24 279 89 411 103 208 275 361 495 440 l60 21
22 90 c25 100 52 174 90 243 195 349 572 539 969 487 87 -11 233 -62 319 -111
l75 -42 28 19 c93 63 227 114 349 133 106 16 199 13 314 -10 30 -5 119 -36
173 -59 l37 -16 -6 52 c-48 402 -345 731 -739 819 -73 16 -267 33 -277 24z"/>
<path d="M2629 3276 c-2 -2 -22 -6 -44 -10 -94 -14 -223 -67 -315 -129 -200
-137 -337 -382 -345 -616 l-2 -54 -59 -17 c-180 -49 -347 -173 -451 -332 -23
-36 -43 -69 -43 -71 0 -2 -10 -26 -22 -53 -12 -27 -23 -53 -24 -59 -28 -107
-36 -154 -38 -225 -10 -373 218 -687 579 -796 l90 -27 1210 0 c666 0 1233 2
1260 6 324 40 595 293 669 625 18 81 18 239 0 326 -32 153 -103 285 -214 397
-97 98 -201 164 -315 198 -92 28 -93 29 -93 74 -1 166 -77 356 -200 496 -111
126 -245 204 -439 254 -50 13 -251 15 -302 3 -109 -26 -234 -78 -301 -126
l-29 -21 -78 46 c-118 69 -243 106 -379 111 -61 2 -113 2 -115 0z"/>
</g>
</svg>
